<svg id="svg5" height="512pt" viewBox="0 0 18.285714 18.285714" width="512pt" xmlns="http://www.w3.org/2000/svg" xmlns:inkscape="http://www.inkscape.org/namespaces/inkscape" xmlns:sodipodi="http://sodipodi.sourceforge.net/DTD/sodipodi-0.dtd" xmlns:svg="http://www.w3.org/2000/svg" inkscape:version="1.2.2 (732a01da63, 2022-12-09)" sodipodi:docname="Electrical Component 512pt.svg"><g id="layer2" inkscape:groupmode="layer" inkscape:label="Inverter"><g id="g2291" stroke-linecap="round" transform="matrix(2.808 0 0 2.808 .228 .228)"><path id="path1310-4" d="m5.6894531 1.3222656a.1322915.1322915 0 0 0 -.1328125.1328125v3.3066406c0 .4630205-.331901.7949219-.7949219.7949219h-3.1738281c-.2425345 0-.3803917-.060235-.4570312-.1113281-.07664-.051093-.085937-.080078-.085937-.080078a.1322915.1322915 0 0 0 -.1777349-.060547.1322915.1322915 0 0 0 -.05859375.1777344s.0539835.1023952.17578125.1835937c.1217978.081199.316884.1542969.6035156.1542969h3.1738281c.5953122 0 1.0585938-.4632819 1.0585938-1.0585938v-3.3066406a.1322915.1322915 0 0 0 -.1308594-.1328125z" stroke-linejoin="round"/><path id="path12381-3" d="m1.5880168.52916666c-.59531119 0-1.05885014.46353885-1.05885014 1.05885014v3.3062581a.1322915.1322915 0 0 0 .13280843.1333252.1322915.1322915 0 0 0 .13074138-.1333252v-3.3062581c0-.4630201.33228033-.79530033.79530033-.79530033h3.1734496c.2425345 0 .3806971.0605281.4573365.11162109.00845.005632.015848.010934.022738.0160197l-4.40799965 4.40851644-.00155.00103a.1322915.1322915 0 0 0 -.0139526.1684652c.0005759.0009159.00039799.0005584.001034.00155.0208921.032605.0740164.1049826.16536458.1658814.12179767.081199.31694937.1545125.60358077.1545125h3.1734496c.5953116 0 1.0588501-.4635388 1.0588501-1.0588501v-3.3062544a.1322915.1322915 0 0 0 -.1307425-.1328084.1322915.1322915 0 0 0 -.1328085.1328084v3.3062581c0 .4630201-.3322798.7953003-.7953003.7953003h-3.1734496c-.2425343 0-.380697-.060528-.4573365-.1116211-.00856-.00571-.015775-.010873-.022738-.01602l4.3981815-4.3986975a.1322915.1322915 0 0 0 .00517-.00465l.00517-.00465a.1322915.1322915 0 0 0 .00103-.00155.1322915.1322915 0 0 0 .00827-.00879.1322915.1322915 0 0 0 .026355-.0506429.1322915.1322915 0 0 0 .00258-.0118856.1322915.1322915 0 0 0 0-.00155.1322915.1322915 0 0 0 .00155-.0118856.1322915.1322915 0 0 0 0-.0160197.1322915.1322915 0 0 0 -.00103-.0118856.1322915.1322915 0 0 0 -.0005167-.002067.1322915.1322915 0 0 0 -.00207-.0113688.1322915.1322915 0 0 0 -.0005168-.002067.1322915.1322915 0 0 0 -.00103-.002067.1322915.1322915 0 0 0 -.00362-.0108521.1322915.1322915 0 0 0 -.00465-.0113688s-.0009725-.00144-.00103-.00155a.1322915.1322915 0 0 0 -.00155-.002067c-.0008676-.001527-.0021-.004939-.00517-.009819a.1322915.1322915 0 0 0 -.00258-.003617c-.021448-.03260249-.0760903-.10549695-.1674381-.16639581-.1217973-.08119841-.3169493-.15451253-.6035808-.15451253z"/><g stroke-linejoin="round"><path id="path12383-2" d="m4.2265625 4.2578125c-.1103135-.0499482-.2325122-.0114976-.3046875.0429687-.1443506.1089328-.2070312.2753907-.2070312.2753907a.1322915.1322915 0 0 0 .068359.1757812.1322915.1322915 0 0 0 .1738282-.068359s.070913-.131059.1249999-.171875c.027043-.020408.021446-.019879.035156-.013672.01371.00621.067393.050707.1269531.1855468.072731.1646575.1514053.2703643.2617188.3203125.1103135.049948.230559.011498.3027343-.042969.1443514-.1089326.2070319-.2773437.2070319-.2773437a.1322915.1322915 0 0 0 -.0664063-.1738281.1322915.1322915 0 0 0 -.1757812.0664063s-.06896.1330121-.1230469.1738281c-.027043.020408-.021446.017926-.035156.011719-.01371-.0062078-.0693461-.050707-.1289065-.1855471-.072731-.1646574-.1494521-.2684112-.2597656-.3183594z"/><path id="path12389-9" d="m1.4550781 1.3222656a.1322915.1322915 0 0 0 -.1328125.1328125.1322915.1322915 0 0 0 .1328125.1328125h1.0585938a.1322915.1322915 0 0 0 .1328125-.1328125.1322915.1322915 0 0 0 -.1328125-.1328125z"/><path id="path12391-3" d="m1.4550781 1.8515625a.1322915.1322915 0 0 0 -.1328125.1328125.1322915.1322915 0 0 0 .1328125.1328125h.1328125a.1322915.1322915 0 0 0 .1328125-.1328125.1322915.1322915 0 0 0 -.1328125-.1328125z"/><path id="path12393-1" d="m2.3808594 1.8515625a.1322915.1322915 0 0 0 -.1328125.1328125.1322915.1322915 0 0 0 .1328125.1328125h.1328125a.1322915.1322915 0 0 0 .1328125-.1328125.1322915.1322915 0 0 0 -.1328125-.1328125z"/><path id="path12395-5" d="m1.9179687 1.8515625a.1322915.1322915 0 0 0 -.1328125.1328125.1322915.1322915 0 0 0 .1328125.1328125h.1328126a.1322915.1322915 0 0 0 .1328125-.1328125.1322915.1322915 0 0 0 -.1328125-.1328125z"/></g></g></g></svg>