<svg id="uuid-1d909993-f19b-4796-9b91-385a8be8ca3a" height="512" viewBox="0 0 512 512" width="512" xmlns="http://www.w3.org/2000/svg"><path d="m461.72 133.18h-15.97c-3.31 0-6 2.69-6 6s2.69 6 6 6h15.97c7.88-.13 7.89-11.87 0-12z"/><path d="m241.01 145.18h15.97c3.31 0 6-2.69 6-6s-2.69-6-6-6h-15.97c-7.88.13-7.89 11.87 0 12z"/><path d="m172.58 179.59c-7.88.13-7.89 11.87 0 12h15.97c3.31 0 6-2.69 6-6s-2.69-6-6-6z"/><path d="m18.95 191.59h15.97c3.31 0 6-2.69 6-6s-2.69-6-6-6h-15.97c-7.88.13-7.89 11.87 0 12z"/><path d="m15.06 221.36c-7.82.27-7.7 11.88.11 12 8-.09 12.51-3.77 14.89-8.59 7.28 7.04 18.76 13.43 33.78 18.68l-12.03 159.78c-4.97.15-12.5-1.47-13.18 5.64l-1.2 20.04c-.27 3.35 2.63 6.43 5.99 6.36h26.42c3.36.07 6.26-3.01 5.99-6.36l-1.2-20.04c-.67-6.1-6.05-5.8-10.78-5.64l.46-6.1 40.11-31.76 40.09 31.75.46 6.11c-4.72-.15-10.13-.47-10.79 5.64l-1.2 20.04c-.27 3.35 2.63 6.43 5.99 6.36h26.41c3.36.07 6.26-3.01 5.99-6.36l-1.2-20.04c-.69-7.1-8.17-5.5-13.16-5.64l-11.17-148.41c25.68-1.25 48.28-7.16 65.88-17.22 22.94 7.98 54.36 13.14 85.77 14.12.09 2.27-14.92 191.76-14.33 193.9h-9.81c-3.17 0-5.79 2.46-5.99 5.62-2.43 41.22-7.28 29.76 38.91 31.47 3.36.07 6.27-3.02 5.99-6.38l-1.57-25.09c-.2-3.16-2.82-5.62-5.99-5.62h-9.84c.06-.28.12-.56.15-.85l1.33-17.74 55.05-43.6 55.04 43.59 1.34 17.74c.02.29.08.57.15.85h-9.84c-3.17 0-5.79 2.46-5.99 5.62-2.43 41.23-7.28 29.76 38.91 31.47 3.36.07 6.27-3.02 5.99-6.37l-1.56-25.09c-.2-3.16-2.82-5.63-5.99-5.63h-9.82c.61-1.92-15.68-208.37-15.57-210.34 26.9-11.55 44.43-28.69 51.78-50.37 6.26 8 16.14 15.13 29.61 21.34 7.17 3.18 12.16-7.45 5.02-10.9-21.7-10.25-31.5-20.85-30.69-35.49 9.23 1.4 11.2-11.16 1.99-12h-15.97c-9.21.85-7.25 13.4 2 12 .04 27.78-14.95 48.85-44.69 62.71l-6.84-90.88h70.69c8.75.13 12.07-11.93 4.47-16.32l-79.93-47.15-2.92-38.76h25.91c1.34 0 2.44 1.1 2.44 2.44.12 7.87 11.9 7.86 12-.03-.02-7.95-6.49-14.42-14.44-14.42h-126.15c-7.95 0-14.42 6.47-14.44 14.42.15 7.9 11.83 7.91 12 .03 0-1.35 1.1-2.44 2.44-2.44h25.91l-2.93 39.01c-18.57 10.88-60.98 35.79-79.92 46.9-4.16 2.46-5.55 7.85-3.13 11.94 1.57 2.74 4.52 4.42 7.69 4.38h70.61l-8.13 108.06c-26.61-.79-53.15-4.66-74.08-10.73 13.76-11.2 23.04-25.77 27.54-43.13 6.46 7.45 17.91 16.71 31.32 20.91 6.25.12 8.34-8.88 2.51-11.45-21.71-10.25-31.48-20.85-30.7-35.49 9.24 1.41 11.21-11.15 2-12h-15.97c-9.2.84-7.25 13.4 1.99 12 .03 28.48-10.9 50.23-32.58 64.48-17.44-6.94-23.61-13.53-23.57-18.07 8.98 1.28 10.73-11.31 1.69-12h-15.97c-9.16.85-7.43 13.45 2.27 12-.12 11.25-1.53 13.04-5.86 13.12-3.31.06-5.95 2.79-5.89 6.11.06 3.31 2.81 5.95 6.11 5.89 7.83-.14 12.19-3.62 14.61-8.27 3.44 2.97 7.87 5.79 13.28 8.46-14.61 6.51-32.34 10.35-52.17 11.28l-5.1-67.75h51.71c8.08.13 11.13-11.07 4.12-15.05l-59.61-35.16-2.02-26.88h17.95c.2 0 .36.16.36.35.11 7.88 11.88 7.89 12 0 0-6.81-5.54-12.35-12.36-12.35h-95.17c-6.82 0-12.36 5.54-12.36 12.35.16 7.9 11.85 7.89 12 0 0-.19.16-.35.36-.35h17.95l-2.04 27.05-59.59 34.98c-7.05 3.95-3.98 15.22 4.08 15.07.09.04 51.64-.03 51.74 0l-4.21 55.94c-22.07-8.31-31.89-17.92-31.85-24.78 9.24 1.41 11.21-11.15 2-12h-15.97c-9.2.84-7.25 13.4 1.99 12 .02 12.61-1.29 15.16-5.88 15.1zm34.72 201.91.48-8.04h12.72l.48 8.04zm109.22 0h-13.67l.48-8.04h12.71zm140.86 47.44h-21.72l.82-13.09h20.08zm124.72 0h-21.72l.82-13.09h20.08l.81 13.09zm-33.2-243.34c-18.76 6.78-41.91 10.95-67.34 12.15l-12.8-10.83.72-9.62 39.4-34.68 39.39 34.68.63 8.31zm-19.67 18.08-20.32 17.2-14.17-11.99c12.16-1.06 23.73-2.81 34.49-5.21zm-29.61 25.06-36.32 30.73 3.71-49.35c3.45-.01 6.91-.08 10.36-.19l22.25 18.82zm-37.58 47.45c.5-.25 46.41-39.26 46.87-39.59.91.67 45.84 38.96 46.8 39.49l.94 12.44-47.76 37.83-47.77-37.83.93-12.34zm56.16-47.45 31.92-27 4.34 57.68-36.26-30.67zm-.24-94.12 25.42-22.38 3.61 47.93-29.03-25.56zm11.34-56.7h-41.11l20.36-15.59zm-10.86-23.16 19.49-14.92 2.36 31.33zm-40.96 16.25 2.28-30.3 18.82 14.14zm64.22 18.92.55 7.33-33.37 29.38-33.37-29.38.55-7.33zm-33.22-42.65-16.02-12.03h31.73zm-42.91 22.15-15.8-17.66 17.91-10.51-2.12 28.17zm8.81 42.82 25.42 22.38-29.03 25.55zm-19.32 256.75 4.97-66.01 39.19 31.04zm63.49-34.97 39.19-31.04 4.97 66-44.15-34.97zm41.74-256.1 17.51-20.52 34.79 20.52h-52.31zm7.02-26.71-15.15 17.75-2.1-27.92zm-33.29-63.52 2.67 35.55h-55.61l2.67-35.55h50.26zm-94.79 70.27 17.85 19.96h-51.87l34.01-19.96zm-148.8 143.31c-17.64-.2-35.68-2.61-52.09-6.95l23.59-20.77 28.29 24.9zm-9.89 11.68-18.59 15.73-27.01-22.85c14.43 3.84 30.03 6.27 45.6 7.12zm-48.46 6.18 20.58 17.41-23.38 19.78zm-4.07 53.98 33.94-28.71s33.86 28.65 33.88 28.66l.6 7.91-34.5 27.32-34.51-27.33zm43.22-36.57 20.54-17.38 2.79 37.11-23.33-19.74zm-.23-70.98 15.69-13.81 2.23 29.59-17.92-15.77zm14.57-28.81-23.65 20.82-23.65-20.81.26-3.43h46.78l.26 3.43zm-45.61-22.34 1.27-16.89 10.49 7.88zm21.73-1.52 11.22 8.43h-22.23zm9.89-7.58 10.99-8.42 1.33 17.68zm-9.96-7.49-7.65-5.75h15.15zm-33.57 14.99-8.39-9.39 9.52-5.59-1.13 14.97zm9.1 38.93 15.69 13.81-17.92 15.78zm-14.11 187.33 3.29-43.67 25.93 20.53zm48.55-23.14 25.92-20.52 3.28 43.65-29.2-23.12zm32.3-194.62 10.33-12.1 20.51 12.1h-30.83zm-.17-18.29-7.95 9.32-1.1-14.66 9.06 5.34zm-24.21-46.8 1.79 23.85h-38.76l1.8-23.85zm-70.42 53.4 10.46 11.69h-30.38l19.93-11.69z"/></svg>