<svg viewBox="-32 0 512 512" xmlns="http://www.w3.org/2000/svg"><path d="m446.546875 136.859375c-2.765625-6.75-7.992187-12.015625-14.71875-14.832031l-75.296875-31.527344c-3.816406-1.601562-8.214844.199219-9.8125 4.019531-1.601562 3.820313.199219 8.214844 4.019531 9.816407l75.296875 31.527343c3.03125 1.269531 5.386719 3.640625 6.632813 6.683594 1.246093 3.039063 1.230469 6.382813-.035157 9.414063-1.921874 4.589843-6.378906 7.554687-11.355468 7.554687-1.628906 0-3.222656-.320313-4.746094-.957031l-189.335938-79.28125c-1.851562-.773438-3.9375-.773438-5.792968 0l-189.335938 79.28125c-3.03125 1.269531-6.375 1.28125-9.414062.035156-3.042969-1.246094-5.414063-3.601562-6.683594-6.632812s-1.28125-6.375-.035156-9.414063 3.601562-5.414063 6.632812-6.683594l63.164063-26.449219c.207031-.074218.414062-.160156.613281-.257812l133.203125-55.773438c3.023437-1.265624 6.484375-1.265624 9.503906 0l92.996094 38.9375c3.820313 1.601563 8.214844-.199218 9.8125-4.019531 1.601563-3.820312-.199219-8.214843-4.019531-9.816406l-92.992188-38.9375c-6.703125-2.808594-14.390625-2.808594-21.09375 0l-72.953125 30.546875v-20.746094h8.125c4.140625 0 7.5-3.359375 7.5-7.5v-34.347656c0-4.144531-3.359375-7.5-7.5-7.5h-81.398437c-4.144532 0-7.5 3.355469-7.5 7.5v34.347656c0 4.140625 3.355468 7.5 7.5 7.5h8.121094v48.027344l-58.875 24.652344c-6.726563 2.816406-11.957032 8.082031-14.71875 14.832031-2.765626 6.746094-2.738282 14.167969.078124 20.894531 2.816407 6.726563 8.085938 11.957032 14.832032 14.722656 3.34375 1.367188 6.847656 2.050782 10.351562 2.050782 3.578125 0 7.148438-.710938 10.546875-2.132813l19.925781-8.34375v255.519531c0 9.769532 7.949219 17.71875 17.722657 17.71875h44.367187c4.144532 0 7.5-3.355468 7.5-7.5 0-4.140624-3.355468-7.5-7.5-7.5h-44.367187c-1.5 0-2.722657-1.21875-2.722657-2.71875v-261.800781l151.511719-63.441406 151.507813 63.441406v261.800781c0 1.5-1.21875 2.71875-2.71875 2.71875h-40.808594c-4.144531 0-7.5 3.359376-7.5 7.5 0 4.144532 3.355469 7.5 7.5 7.5h40.808594c9.769531 0 17.71875-7.949218 17.71875-17.71875v-255.519531l19.929687 8.34375c3.363281 1.40625 6.910157 2.121094 10.539063 2.121094 11.039062 0 20.925781-6.578125 25.191406-16.761719 2.816406-6.726562 2.84375-14.148437.078125-20.894531zm-371.519531-121.859375h66.394531v19.347656h-66.394531zm15.621094 34.347656h35.152343v27.027344l-35.152343 14.71875zm0 0"/><path d="m179.476562 164.558594h89.648438c4.140625 0 7.5-3.359375 7.5-7.5 0-4.144532-3.359375-7.5-7.5-7.5h-89.648438c-4.140624 0-7.5 3.355468-7.5 7.5 0 4.140625 3.359376 7.5 7.5 7.5zm0 0"/><path d="m326.800781 312.710938c0-13.449219-10.941406-24.386719-24.386719-24.386719h-7.113281v-48.9375c0-10.964844-8.921875-19.886719-19.890625-19.886719-10.964844 0-19.886718 8.921875-19.886718 19.886719v48.9375h-62.449219v-48.9375c0-10.964844-8.921875-19.886719-19.886719-19.886719s-19.886719 8.921875-19.886719 19.886719v48.9375h-7.113281c-13.449219 0-24.386719 10.9375-24.386719 24.386719 0 12.480468 9.425781 22.804687 21.535157 24.21875v14.902343c0 4.144531 3.355468 7.5 7.5 7.5 4.140624 0 7.5-3.355469 7.5-7.5v-14.734375h131.929687v51.261719c0 36.371094-29.59375 65.964844-65.964844 65.964844-36.375 0-65.964843-29.59375-65.964843-65.964844v-6.523437c0-4.144532-3.359376-7.5-7.5-7.5-4.144532 0-7.5 3.355468-7.5 7.5v6.523437c0 36.308594 24.023437 67.113281 57.011718 77.351563v38.789062c0 4.144531 3.359375 7.5 7.5 7.5 4.144532 0 7.5-3.355469 7.5-7.5v-35.667969c5.804688.640625 11.835938.671875 17.902344 0v35.667969c0 4.144531 3.355469 7.5 7.5 7.5 4.140625 0 7.5-3.355469 7.5-7.5v-38.792969c32.988281-10.234375 57.015625-41.039062 57.015625-77.347656v-51.429687c12.109375-1.414063 21.535156-11.738282 21.535156-24.21875zm-56.277343-73.320313c0-2.695313 2.191406-4.890625 4.886718-4.890625 2.699219 0 4.890625 2.191406 4.890625 4.890625v48.933594h-9.777343zm-102.222657 0c0-2.695313 2.191407-4.890625 4.886719-4.890625s4.890625 2.191406 4.890625 4.890625v48.933594h-9.777344zm134.113281 82.707031h-156.226562c-5.175781 0-9.386719-4.210937-9.386719-9.386718 0-5.175782 4.210938-9.386719 9.386719-9.386719h156.226562c5.175782 0 9.386719 4.210937 9.386719 9.386719 0 5.175781-4.210937 9.386718-9.386719 9.386718zm0 0"/><path d="m235.378906 363.882812c-3.230468-2.59375-7.949218-2.074218-10.542968 1.15625l-18.136719 22.597657c-1.570313 1.957031-2.058594 4.570312-1.300781 6.964843.757812 2.390626 2.664062 4.246094 5.078124 4.9375l12.675782 3.644532-11.085938 13.808594c-2.59375 3.230468-2.078125 7.949218 1.15625 10.542968 1.382813 1.113282 3.042969 1.652344 4.6875 1.652344 2.195313 0 4.371094-.960938 5.855469-2.804688l18.140625-22.601562c1.570312-1.957031 2.058594-4.570312 1.296875-6.960938-.757813-2.394531-2.660156-4.246093-5.074219-4.941406l-12.675781-3.640625 11.082031-13.8125c2.59375-3.230469 2.074219-7.949219-1.15625-10.542969zm0 0"/></svg>