<?xml version="1.0" standalone="no"?>
<!DOCTYPE svg PUBLIC "-//W3C//DTD SVG 20010904//EN"
 "http://www.w3.org/TR/2001/REC-SVG-20010904/DTD/svg10.dtd">
<svg version="1.0" xmlns="http://www.w3.org/2000/svg"
 width="600.000000pt" height="304.000000pt" viewBox="0 0 600.000000 304.000000"
 preserveAspectRatio="xMidYMid meet">
<metadata>
Created by potrace 1.16, written by Peter Selinger 2001-2019
</metadata>
<g transform="translate(0.000000,304.000000) scale(0.100000,-0.100000)"
fill="#000000" stroke="none">
<path d="M5310 2924 c-75 -20 -127 -53 -200 -125 l-63 -62 -368 6 c-284 4
-369 3 -369 -7 0 -6 30 -42 68 -78 46 -46 89 -77 137 -100 67 -31 75 -33 186
-33 113 0 117 1 191 38 55 27 90 53 129 97 l54 60 368 0 c256 0 367 3 367 11
0 22 -102 127 -148 152 -101 54 -240 71 -352 41z"/>
<path d="M5191 2670 c-107 -16 -176 -54 -279 -157 l-44 -43 -369 0 c-203 0
-369 -4 -369 -9 0 -14 128 -134 163 -153 107 -58 230 -71 355 -39 84 22 131
52 199 125 42 44 53 51 88 52 22 1 187 2 368 3 310 1 327 2 327 19 0 24 -114
133 -167 161 -70 35 -186 53 -272 41z"/>
<path d="M2042 2639 c-157 -24 -334 -138 -407 -264 -73 -123 -102 -331 -91
-636 7 -192 17 -256 57 -359 47 -123 139 -219 269 -282 98 -47 165 -62 280
-62 113 0 180 15 275 59 128 61 196 128 264 263 26 52 61 161 61 191 0 8 -61
11 -203 11 l-203 0 -12 -34 c-7 -19 -30 -53 -51 -77 -37 -42 -40 -43 -110 -47
-80 -5 -116 6 -154 46 -48 52 -59 109 -65 333 -7 315 15 420 98 477 31 21 44
23 114 20 79 -3 79 -3 117 -47 21 -23 44 -58 51 -77 l12 -34 203 0 c142 0 203
3 203 11 0 31 -35 139 -62 193 -67 132 -152 214 -281 270 -102 45 -248 63
-365 45z"/>
<path d="M200 1841 l0 -791 200 0 200 0 0 290 0 290 58 0 59 0 18 -42 c17 -44
43 -98 178 -380 l76 -158 230 0 c127 0 231 2 231 5 0 2 -30 62 -66 132 -37 70
-102 197 -146 282 -44 84 -85 163 -93 175 -31 50 -28 59 35 106 85 61 153 164
176 266 31 142 1 279 -89 406 -44 60 -67 81 -132 121 -136 82 -130 81 -557 85
l-378 3 0 -790z m675 413 c103 -48 115 -190 23 -256 -30 -21 -46 -23 -165 -26
l-133 -4 0 151 0 151 121 0 c89 0 130 -4 154 -16z"/>
<path d="M2820 2450 l0 -180 195 0 195 0 0 -610 0 -610 200 0 200 0 0 610 0
610 193 2 192 3 3 155 c1 85 0 165 -3 178 l-5 22 -585 0 -585 0 0 -180z"/>
<path d="M5015 2403 c-89 -19 -164 -64 -249 -149 l-56 -57 -365 5 c-266 3
-365 2 -365 -7 0 -6 28 -39 63 -74 133 -134 298 -171 482 -109 59 19 82 34
146 96 l76 72 367 0 c425 0 409 -5 303 97 -70 68 -136 105 -215 122 -52 11
-147 13 -187 4z"/>
<path d="M2237 733 c-4 -3 -7 -147 -7 -320 l0 -313 40 0 40 0 0 105 c0 58 2
105 4 105 2 0 17 -7 32 -15 40 -20 112 -19 154 3 20 11 46 38 60 63 22 39 25
55 25 149 0 94 -3 110 -25 149 -14 25 -40 52 -60 63 -42 22 -114 23 -154 3
-27 -14 -31 -14 -38 0 -9 15 -59 21 -71 8z m233 -91 c25 -20 38 -104 30 -191
-7 -69 -34 -93 -98 -89 -60 4 -84 36 -90 118 -9 121 23 180 96 180 23 0 49 -7
62 -18z"/>
<path d="M2781 722 c-78 -39 -121 -143 -106 -256 10 -68 21 -95 53 -129 39
-41 74 -57 127 -57 86 0 153 49 175 128 13 48 13 156 0 204 -30 106 -152 160
-249 110z m150 -91 c28 -28 29 -33 29 -121 0 -88 -1 -93 -29 -121 -47 -47
-135 -36 -161 20 -18 40 -24 121 -11 168 23 84 114 112 172 54z"/>
<path d="M3100 729 c0 -18 54 -200 98 -329 l39 -115 33 0 c32 0 35 3 57 60 13
33 34 98 47 144 13 46 28 87 33 92 6 6 30 -52 60 -143 53 -157 59 -166 106
-154 17 4 26 20 40 73 11 37 41 135 68 218 28 84 45 153 40 158 -5 5 -24 7
-42 5 -30 -3 -35 -8 -46 -43 -6 -22 -26 -93 -45 -157 -18 -64 -36 -114 -39
-110 -4 4 -17 39 -29 77 -72 229 -72 230 -107 233 -28 3 -32 0 -43 -35 -48
-148 -94 -273 -100 -273 -5 0 -11 15 -15 33 -12 61 -68 252 -78 265 -12 15
-77 16 -77 1z"/>
<path d="M3885 726 c-43 -19 -92 -78 -106 -128 -6 -24 -9 -75 -7 -114 6 -84
32 -138 85 -174 31 -21 48 -25 113 -25 67 0 82 4 118 28 48 31 52 50 17 73
-24 16 -27 15 -45 -1 -25 -23 -110 -31 -149 -15 -32 13 -40 25 -51 83 l-7 37
145 0 145 0 -7 66 c-7 73 -22 107 -58 141 -46 43 -131 56 -193 29z m110 -70
c33 -14 65 -59 65 -91 0 -12 -16 -15 -100 -15 l-100 0 0 26 c0 38 18 64 53 79
40 18 41 18 82 1z"/>
<path d="M4264 727 c-2 -7 -3 -109 -2 -227 l3 -215 35 0 35 0 5 155 c5 159 13
190 50 210 27 14 83 12 106 -4 17 -13 22 -12 42 6 31 30 28 53 -12 72 -45 21
-103 20 -148 -3 -35 -18 -37 -18 -41 0 -6 22 -65 27 -73 6z"/>
</g>
</svg>
