<?xml version="1.0" encoding="iso-8859-1"?>
<!-- Generator: Adobe Illustrator 19.0.0, SVG Export Plug-In . SVG Version: 6.00 Build 0)  -->
<svg version="1.1" id="Capa_1" xmlns="http://www.w3.org/2000/svg" xmlns:xlink="http://www.w3.org/1999/xlink" x="0px" y="0px"
	 viewBox="0 0 477.547 477.547" style="enable-background:new 0 0 477.547 477.547;" xml:space="preserve">
<g>
	<g>
		<g>
			<path d="M352.004,179.692c33.933,0,61.539-27.606,61.539-61.538s-27.606-61.538-61.539-61.538
				c-33.933,0-61.538,27.606-61.538,61.538S318.072,179.692,352.004,179.692z M352.004,66.462c28.503,0,51.692,23.189,51.692,51.692
				s-23.189,51.692-51.692,51.692c-28.503,0-51.692-23.189-51.692-51.692S323.501,66.462,352.004,66.462z"/>
			<path d="M352.004,31.926c2.719,0,4.923-2.204,4.923-4.923V4.923c0-2.719-2.204-4.923-4.923-4.923
				c-2.719,0-4.923,2.204-4.923,4.923v22.08C347.081,29.722,349.285,31.926,352.004,31.926z"/>
			<path d="M302.166,41.676c0.912,1.58,2.566,2.463,4.268,2.463c0.835,0,1.682-0.213,2.457-0.661c2.355-1.36,3.162-4.37,1.802-6.725
				l-11.04-19.121c-1.36-2.355-4.371-3.162-6.725-1.802c-2.355,1.36-3.162,4.37-1.802,6.725L302.166,41.676z"/>
			<path d="M251.482,65.802l19.122,11.039c0.776,0.448,1.622,0.661,2.457,0.661c1.702,0,3.357-0.884,4.268-2.463
				c1.36-2.355,0.553-5.365-1.802-6.725l-19.122-11.039c-2.359-1.362-5.367-0.552-6.725,1.802
				C248.321,61.432,249.127,64.442,251.482,65.802z"/>
			<path d="M238.774,123.077h22.08c2.719,0,4.923-2.204,4.923-4.923s-2.204-4.923-4.923-4.923h-22.08
				c-2.719,0-4.923,2.204-4.923,4.923S236.054,123.077,238.774,123.077z"/>
			<path d="M270.604,159.465l-19.122,11.04c-2.355,1.36-3.162,4.37-1.802,6.725c0.912,1.58,2.566,2.463,4.268,2.463
				c0.835,0,1.682-0.213,2.457-0.661l19.122-11.04c2.355-1.36,3.161-4.37,1.802-6.725S272.958,158.103,270.604,159.465z"/>
			<path d="M302.166,194.631l-11.04,19.122c-1.36,2.355-0.553,5.365,1.802,6.725c0.775,0.448,1.622,0.661,2.457,0.661
				c1.702,0,3.357-0.883,4.268-2.463l11.04-19.122c1.36-2.355,0.553-5.365-1.802-6.725
				C306.535,191.466,303.524,192.276,302.166,194.631z"/>
			<path d="M347.081,209.304v22.081c0,2.719,2.204,4.923,4.923,4.923c2.719,0,4.923-2.204,4.923-4.923v-22.081
				c0-2.719-2.204-4.923-4.923-4.923C349.285,204.381,347.081,206.585,347.081,209.304z"/>
			<path d="M395.118,192.829c-2.355,1.36-3.161,4.37-1.802,6.725l11.04,19.122c0.912,1.58,2.566,2.463,4.268,2.463
				c0.835,0,1.682-0.213,2.457-0.661c2.355-1.36,3.161-4.37,1.802-6.725l-11.04-19.122
				C400.484,192.276,397.472,191.466,395.118,192.829z"/>
			<path d="M428.481,167.992l19.122,11.04c0.775,0.448,1.622,0.661,2.457,0.661c1.702,0,3.357-0.883,4.268-2.463
				c1.36-2.355,0.553-5.365-1.802-6.725l-19.122-11.04c-2.357-1.362-5.366-0.553-6.725,1.802
				C425.32,163.622,426.126,166.633,428.481,167.992z"/>
			<path d="M438.232,118.154c0,2.719,2.204,4.923,4.923,4.923h22.08c2.719,0,4.923-2.204,4.923-4.923s-2.204-4.923-4.923-4.923
				h-22.08C440.436,113.231,438.232,115.435,438.232,118.154z"/>
			<path d="M430.948,77.502c0.835,0,1.682-0.213,2.457-0.661l19.122-11.039c2.355-1.36,3.161-4.37,1.802-6.725
				c-1.36-2.355-4.371-3.164-6.725-1.802l-19.122,11.039c-2.355,1.36-3.161,4.37-1.802,6.725
				C427.591,76.619,429.246,77.502,430.948,77.502z"/>
			<path d="M395.118,43.478c0.775,0.448,1.622,0.661,2.457,0.661c1.702,0,3.357-0.883,4.268-2.463l11.04-19.121
				c1.36-2.355,0.553-5.365-1.802-6.725c-2.357-1.362-5.366-0.553-6.725,1.802l-11.04,19.121
				C391.956,39.108,392.763,42.118,395.118,43.478z"/>
			<path d="M397.598,255.199c-0.738-1.887-2.558-3.128-4.584-3.128h-77.12h-77.12h-77.12h-77.12c-2.026,0-3.845,1.241-4.584,3.128
				L7.728,439.616c-0.594,1.515-0.4,3.226,0.517,4.57c0.917,1.344,2.439,2.148,4.066,2.148h33.862v26.289
				c0,2.719,2.204,4.923,4.923,4.923H426.45c2.719,0,4.923-2.204,4.923-4.923v-26.289h33.862c1.627,0,3.149-0.804,4.066-2.148
				c0.917-1.344,1.112-3.055,0.517-4.57L397.598,255.199z M389.654,261.917l32.255,82.362h-83.907l-16.127-82.362H389.654z
				 M243.697,261.917h68.144l16.127,82.362h-84.272V261.917z M243.697,354.126h86.2l16.127,82.362H243.697V354.126z
				 M165.706,261.917h68.144v82.362h-84.272L165.706,261.917z M233.85,354.126v82.362H131.524l16.127-82.362H233.85z
				 M87.893,261.917h67.78l-16.127,82.362H55.638L87.893,261.917z M19.527,436.488l32.761-83.655c0.875,0.795,2.025,1.293,3.3,1.293
				h82.028l-16.127,82.362H51.097H19.527z M421.527,467.701H56.02v-21.366h69.523h113.231h113.231h69.523V467.701z M426.45,436.488
				h-70.393l-16.127-82.362h82.028c1.276,0,2.426-0.497,3.3-1.293l32.761,83.655H426.45z"/>
		</g>
	</g>
</g>
<g>
</g>
<g>
</g>
<g>
</g>
<g>
</g>
<g>
</g>
<g>
</g>
<g>
</g>
<g>
</g>
<g>
</g>
<g>
</g>
<g>
</g>
<g>
</g>
<g>
</g>
<g>
</g>
<g>
</g>
</svg>
